<svg version="1.1" width="200" height="200" xmlns="http://www.w3.org/2000/svg">
<circle cx="100.0" cy="4.0" r="3" fill="black" />
<circle cx="36.0" cy="42.4" r="3" fill="black" />
<circle cx="20.0" cy="80.8" r="3" fill="black" />
<circle cx="12.0" cy="119.19999999999999" r="3" fill="black" />
<circle cx="28.0" cy="119.19999999999999" r="3" fill="black" />
<circle cx="24.0" cy="157.6" r="3" fill="black" />
<circle cx="32.0" cy="157.6" r="3" fill="black" />
<circle cx="32.0" cy="196.0" r="3" fill="black" />
<line x1="32.0" y1="157.6" x2="32.0" y2="196.0" stroke="black" />
<line x1="28.0" y1="119.19999999999999" x2="24.0" y2="157.6" stroke="black" />
<line x1="28.0" y1="119.19999999999999" x2="32.0" y2="157.6" stroke="black" />
<line x1="20.0" y1="80.8" x2="12.0" y2="119.19999999999999" stroke="black" />
<line x1="20.0" y1="80.8" x2="28.0" y2="119.19999999999999" stroke="black" />
<circle cx="52.0" cy="80.8" r="3" fill="black" />
<circle cx="52.0" cy="119.19999999999999" r="3" fill="black" />
<line x1="52.0" y1="80.8" x2="52.0" y2="119.19999999999999" stroke="black" />
<line x1="36.0" y1="42.4" x2="20.0" y2="80.8" stroke="black" />
<line x1="36.0" y1="42.4" x2="52.0" y2="80.8" stroke="black" />
<circle cx="100.0" cy="42.4" r="3" fill="black" />
<circle cx="100.0" cy="80.8" r="3" fill="black" />
<circle cx="84.0" cy="119.19999999999999" r="3" fill="black" />
<circle cx="116.0" cy="119.19999999999999" r="3" fill="black" />
<circle cx="116.0" cy="157.6" r="3" fill="black" />
<line x1="116.0" y1="119.19999999999999" x2="116.0" y2="157.6" stroke="black" />
<line x1="100.0" y1="80.8" x2="84.0" y2="119.19999999999999" stroke="black" />
<line x1="100.0" y1="80.8" x2="116.0" y2="119.19999999999999" stroke="black" />
<line x1="100.0" y1="42.4" x2="100.0" y2="80.8" stroke="black" />
<circle cx="164.0" cy="42.4" r="3" fill="black" />
<circle cx="140.0" cy="80.8" r="3" fill="black" />
<circle cx="156.0" cy="80.8" r="3" fill="black" />
<circle cx="152.0" cy="119.19999999999999" r="3" fill="black" />
<circle cx="160.0" cy="119.19999999999999" r="3" fill="black" />
<line x1="156.0" y1="80.8" x2="152.0" y2="119.19999999999999" stroke="black" />
<line x1="156.0" y1="80.8" x2="160.0" y2="119.19999999999999" stroke="black" />
<circle cx="172.0" cy="80.8" r="3" fill="black" />
<circle cx="188.0" cy="80.8" r="3" fill="black" />
<line x1="164.0" y1="42.4" x2="140.0" y2="80.8" stroke="black" />
<line x1="164.0" y1="42.4" x2="156.0" y2="80.8" stroke="black" />
<line x1="164.0" y1="42.4" x2="172.0" y2="80.8" stroke="black" />
<line x1="164.0" y1="42.4" x2="188.0" y2="80.8" stroke="black" />
<line x1="100.0" y1="4.0" x2="36.0" y2="42.4" stroke="black" />
<line x1="100.0" y1="4.0" x2="100.0" y2="42.4" stroke="black" />
<line x1="100.0" y1="4.0" x2="164.0" y2="42.4" stroke="black" />
</svg>