<svg version="1.1" width="100" height="100" xmlns="http://www.w3.org/2000/svg">
<circle cx="50.0" cy="4.0" r="2" fill="black" />
<circle cx="27.0" cy="22.4" r="2" fill="black" />
<circle cx="15.5" cy="40.8" r="2" fill="black" />
<circle cx="9.75" cy="59.199999999999996" r="2" fill="black" />
<circle cx="21.25" cy="59.199999999999996" r="2" fill="black" />
<line x1="15.5" y1="40.8" x2="9.75" y2="59.199999999999996" stroke="black" />
<line x1="15.5" y1="40.8" x2="21.25" y2="59.199999999999996" stroke="black" />
<circle cx="38.5" cy="40.8" r="2" fill="black" />
<circle cx="38.5" cy="59.199999999999996" r="2" fill="black" />
<line x1="38.5" y1="40.8" x2="38.5" y2="59.199999999999996" stroke="black" />
<line x1="27.0" y1="22.4" x2="15.5" y2="40.8" stroke="black" />
<line x1="27.0" y1="22.4" x2="38.5" y2="40.8" stroke="black" />
<circle cx="73.0" cy="22.4" r="2" fill="black" />
<circle cx="61.5" cy="40.8" r="2" fill="black" />
<circle cx="55.75" cy="59.199999999999996" r="2" fill="black" />
<circle cx="67.25" cy="59.199999999999996" r="2" fill="black" />
<circle cx="64.375" cy="77.6" r="2" fill="black" />
<circle cx="70.125" cy="77.6" r="2" fill="black" />
<circle cx="70.125" cy="96.0" r="2" fill="black" />
<line x1="70.125" y1="77.6" x2="70.125" y2="96.0" stroke="black" />
<line x1="67.25" y1="59.199999999999996" x2="64.375" y2="77.6" stroke="black" />
<line x1="67.25" y1="59.199999999999996" x2="70.125" y2="77.6" stroke="black" />
<line x1="61.5" y1="40.8" x2="55.75" y2="59.199999999999996" stroke="black" />
<line x1="61.5" y1="40.8" x2="67.25" y2="59.199999999999996" stroke="black" />
<circle cx="84.5" cy="40.8" r="2" fill="black" />
<circle cx="84.5" cy="59.199999999999996" r="2" fill="black" />
<line x1="84.5" y1="40.8" x2="84.5" y2="59.199999999999996" stroke="black" />
<line x1="73.0" y1="22.4" x2="61.5" y2="40.8" stroke="black" />
<line x1="73.0" y1="22.4" x2="84.5" y2="40.8" stroke="black" />
<line x1="50.0" y1="4.0" x2="27.0" y2="22.4" stroke="black" />
<line x1="50.0" y1="4.0" x2="73.0" y2="22.4" stroke="black" />
</svg>